PathFileType        4      (X/Y/Z)      Walking.trc         
DataRate	CameraRate	NumFrames	NumMarkers	Units	OrigDataRate	OrigDataStartFrame	OrigNumFrames
100.0	100.0	15	18	mm	100.0	1	97
Frame#	Time	T2			T10			MANU			LASI			RASI			SACR			LTHI			LKNE			LTIB			LANK			LHEE			LTOE			RTHI			RKNE			RTIB			RANK			RHEE			RTOE			
		X1	Y1	Z1	X2	Y2	Z2	X3	Y3	Z3	X4	Y4	Z4	X5	Y5	Z5	X6	Y6	Z6	X7	Y7	Z7	X8	Y8	Z8	X9	Y9	Z9	X10	Y10	Z10	X11	Y11	Z11	X12	Y12	Z12	X13	Y13	Z13	X14	Y14	Z14	X15	Y15	Z15	X16	Y16	Z16	X17	Y17	Z17	X18	Y18	Z18	
1	3.24	44.99090767	1127.97428293	84.42353638	9.47701707	941.19866577	84.89554488	158.36543329	1053.78069131	88.73611423	136.6870709	740.71316989	-19.08342347	150.67275163	732.52511429	191.61408006	22.85021703	767.09339317	97.63408098	54.60664926	413.62071072	-62.37762718	32.76655864	342.66527355	-16.67144969	-124.90256751	162.48217076	-77.56705961	-198.71369295	110.93352825	-49.11143111	-261.4977683	126.4371177	-44.77631145	-140.24784063	25.84640901	17.45265888	271.30727135	464.87859459	219.60295382	293.28032558	398.03387783	172.93858635	306.10766541	173.14112015	242.80454936	282.32804828	66.54835536	224.5309612	225.93669043	47.1762365	221.91938303	373.34917984	33.5132037	134.81066416	
2	3.25	55.88469601	1124.44902281	86.10348933	22.22548061	937.2181229	86.37042632	169.96545099	1051.16169348	90.15412073	150.3890525	737.08492717	-17.98918191	166.05680007	729.14409898	192.72805983	37.06883402	763.85731424	99.3309734	66.1268127	410.74249921	-62.28311113	44.26675181	339.68037279	-17.00925434	-118.06041325	164.07015508	-78.25389477	-193.0390209	113.96033806	-49.49178573	-255.08287041	131.97145481	-44.82122026	-139.54652729	25.64181161	17.30305304	285.42462645	460.23793809	217.96940807	306.24902592	393.34624893	170.94092238	318.05690816	168.76128797	240.83651275	292.68008809	62.67308511	223.47410118	236.34885586	43.01439902	221.64704968	382.98739542	31.81436836	132.43824213	
3	3.26	66.74043046	1121.16017358	87.70727592	35.13271504	933.44206468	87.73277779	181.58118941	1048.8856508	91.52951432	164.33936113	733.59332849	-16.80700865	181.46844222	725.97918238	193.93649374	51.4263507	760.99624359	100.9259057	78.15785705	407.97220235	-62.13138257	56.32752013	336.80804117	-17.33750925	-110.27294467	165.69763187	-79.13825852	-186.37043925	116.85880623	-50.12615602	-247.46669832	137.53630865	-45.17065712	-138.88281332	25.39082296	17.099038	299.19782527	455.7052124	216.48610711	318.83277983	388.75482741	169.04971742	328.04407858	164.65349863	238.98685788	300.19655764	59.41577119	222.61578694	243.79118236	39.79785666	221.49914069	389.52093909	30.44157575	130.43504175	
4	3.27	77.5566437	1118.20366675	89.2194261	48.14377559	929.97965852	88.96722297	193.18851612	1047.01875978	92.84683	178.45918382	730.3417777	-15.55541947	196.8009989	723.15011901	195.22573261	65.84102576	758.59311556	102.3926722	90.67907259	405.38961883	-61.88281476	68.92577989	334.13066192	-17.60092429	-101.44111085	167.30119955	-80.187433	-178.5917577	119.5194301	-51.01478657	-238.49340377	142.99975916	-45.85764751	-138.24042046	25.11192806	16.84148132	312.53333771	451.42649571	215.21075085	330.95070473	384.4036698	167.332028	336.2409355	160.91362221	237.31952024	305.2557373	56.83212374	221.98498991	248.6582597	37.53847452	221.48680012	393.43627886	29.41680022	128.88201293	
5	3.28	88.3314556	1115.67238031	90.62563874	61.19970453	926.93657867	90.06136932	204.76235501	1045.62329228	94.08995968	192.66497862	727.43600153	-14.25471368	211.9484167	720.77657094	196.57792087	80.23003096	756.72333942	103.70785989	103.67442576	403.07502368	-61.49641313	82.04164916	331.73066284	-17.73992316	-91.47015745	168.81032322	-81.35498658	-169.59467376	121.83904993	-52.14633328	-228.0243004	148.22040708	-46.91338031	-137.55135416	24.83423426	16.53618123	325.32505651	447.52942467	214.19754735	342.4985657	380.41169642	165.85710821	342.85725392	157.60839092	235.88957025	308.31183263	54.92581688	221.58846524	251.43169304	36.18642126	221.60744998	395.29529542	28.7232909	127.8016191	
6	3.29	99.063109	1113.65185123	91.91319122	74.24015275	924.41009107	91.00618697	216.27822471	1044.75445074	95.24289224	206.87211988	724.97853026	-12.92577758	226.81002822	718.97034358	197.97209871	94.51256433	755.4508663	104.85220989	117.13599014	401.10440125	-60.93323033	95.66060853	329.68538251	-17.69563198	-80.27783326	170.15464591	-82.58236656	-159.28851135	123.73372919	-53.49555227	-215.95745624	153.05865373	-48.36017729	-136.67892981	24.59553742	16.19531795	337.46329873	444.11798735	213.49345743	353.35945956	376.86950037	164.69169312	348.12263937	154.7751809	234.74130349	309.84865548	53.65318707	221.41468302	252.62889456	35.63908103	221.84855504	395.67501143	28.31443735	127.16411234	
7	3.3	109.75056279	1112.21608766	93.07125911	87.20604401	922.48440534	91.79628275	227.71376421	1044.45715821	96.29042833	220.99847396	723.06282978	-11.58883396	241.29489449	717.82771624	199.38570902	108.61271468	754.82464862	105.81169549	131.06539877	399.54517126	-60.15990447	109.77473583	328.06242287	-17.41516748	-67.80330597	171.27350825	-83.80165804	-147.61014014	125.15184916	-55.02161043	-202.2473097	157.39047084	-50.20247562	-135.4057296	24.43821029	15.83820177	348.8442259	441.26997932	213.1348565	363.41645679	373.83957807	163.89470265	352.26882235	152.42557425	233.90722329	310.33523813	52.93461411	221.43953607	252.75346858	35.75726945	222.19220601	395.11234403	28.12568433	126.90097958	
8	3.31	120.39406551	1111.42377996	94.09111314	100.04209707	921.22661217	92.43003499	239.05009912	1044.76306499	97.21882742	234.96762209	721.76762556	-10.26228146	255.3254265	717.42271503	200.79628537	122.46192251	754.87578163	106.57821653	145.4728668	398.45291016	-59.15206097	124.38288802	326.91603934	-16.85673988	-54.01551326	172.12645124	-84.93958833	-134.53262142	126.08514379	-56.66776251	-186.92045601	161.12200539	-52.41768894	-133.43087412	24.40321918	15.49088474	359.37841268	439.03685592	213.14514669	372.56540772	371.35916235	163.51216339	355.51475355	150.55133638	233.40768648	310.18971611	52.66972247	221.6324346	252.25454136	36.38526141	222.61952467	394.0622641	28.08669182	126.921755	
9	3.32	130.99562791	1111.31516648	94.96618935	112.69904503	920.68344766	92.90957103	250.27291861	1045.68803837	98.0163567	248.71150623	721.15194602	-8.96177512	268.84007828	717.80201609	202.18303922	136.00093579	755.61553182	107.14987204	160.37381243	397.86933968	-57.89732042	139.48980734	326.2849138	-15.99409579	-38.91967977	172.70290181	-85.92272148	-120.07111392	126.57522368	-58.36303071	-170.08358056	164.20271651	-54.94922194	-130.38058142	24.52321711	15.18440027	368.99751358	437.44521401	213.53364851	380.72608145	369.44435956	163.57318274	358.05589817	149.13106653	233.25098353	309.75515974	52.75301054	221.96164061	251.49943481	37.37051629	223.11406586	392.87373036	28.13155906	127.13049968	
10	3.33	141.55931592	1111.90974926	95.69205844	125.13542505	920.87904511	93.24058721	261.37316692	1047.23035533	98.67372157	262.17236189	721.25131859	-7.69966695	281.79500527	718.98189547	203.52808408	149.18120912	757.03436415	107.53083275	175.78360354	397.82159606	-56.39766346	155.10423878	326.1914053	-14.81987768	-22.5609353	173.02900169	-86.68356405	-104.28476926	126.71354524	-60.02617673	-151.92027901	166.63449859	-57.70375787	-125.83423152	24.81624804	14.95171357	377.65842826	436.4989822	214.29581648	387.85018864	368.09428246	164.08761337	360.05807757	148.13600604	233.43371401	309.28820077	53.0869957	222.39809241	250.76082292	38.57957277	223.66365819	391.78358469	28.20587368	127.43919104	
11	3.34	152.09130346	1113.20498635	96.26634128	137.31884833	921.81376358	93.43202904	272.34729862	1049.36975122	99.18436705	275.30389771	722.07540058	-6.48485694	294.16466982	720.94733419	204.81713439	161.9657333	759.10199317	107.73087601	191.71137918	398.32257748	-54.67091062	171.23627004	326.64213931	-13.34755277	-5.0243	173.16977708	-87.16700743	-87.27381783	126.63382116	-61.57173827	-132.67535551	168.47455506	-60.55423479	-119.36501146	25.28189018	14.82384496	385.34490388	436.18161717	215.41456067	393.92552395	367.2942839	165.04567835	361.65535973	147.53411649	233.94143505	308.95905348	53.5910802	222.91741845	250.2168647	39.90798246	224.26049773	390.92536304	28.2702812	127.77656243	
12	3.35	162.59965831	1115.17602745	96.68862389	149.22669698	923.46412078	93.49566214	283.19709596	1052.06739814	99.54464573	288.07176592	723.60715852	-5.32302167	305.94143976	723.65312309	206.03966066	174.32930987	761.76841047	107.76466109	208.15415038	399.37203699	-52.75108843	187.8942405	327.62962193	-11.61166469	13.56928736	173.2255783	-87.33625425	-69.17181218	126.4973887	-62.91738009	-112.62796528	169.83067897	-63.34886224	-110.59018222	25.90143864	14.8259662	392.06697389	436.45803039	216.86229127	398.97622826	367.01799166	166.41942198	362.95102926	147.29224146	234.7496329	308.86018184	54.20561442	223.50024492	249.96116855	41.28378569	224.89970336	390.34817146	28.30098053	128.09217558	
13	3.36	173.0938786	1117.77649993	96.96041511	160.84623155	925.78380581	93.44556934	293.92909199	1055.26680961	99.75385521	300.45342856	725.80355899	-4.2171175	317.13426876	727.02664003	207.18861581	186.25830889	764.96578369	107.65081503	225.09239604	400.95805381	-50.68749663	205.08167795	329.13448092	-9.66629406	33.07073835	173.32281445	-87.1772497	-50.13393532	126.47369074	-63.99146157	-92.05803522	170.84895929	-65.92535937	-99.22220992	26.64286777	14.97444933	397.8589016	437.27637286	218.603259	403.05979073	367.22835713	168.16554224	364.02057886	147.37668325	235.82505626	309.02039247	54.89168801	224.13118971	250.01881237	42.66541582	225.57684608	390.04037163	28.28795349	128.35642764	
14	3.37	183.58423732	1120.94028892	97.08516715	172.17413231	928.70569889	93.29760464	304.55368	1058.8956003	99.8141549	312.4375568	728.59762087	-3.16801968	327.76658667	730.97189549	208.25992589	197.74997126	768.61107814	107.41088252	242.48810918	403.05856819	-48.54238529	222.79476256	331.12794944	-7.58178255	53.31368605	173.6001958	-86.70074844	-30.32313147	126.71928885	-64.73964455	-71.21272466	171.69549909	-68.12851593	-85.10995305	27.46994192	15.27574581	402.77633741	438.57001503	220.59582146	406.2617562	367.87820232	170.22902272	364.91584081	147.75277105	237.12737958	309.42133202	55.62782684	224.79708862	250.36483117	44.03576591	226.28512761	389.9534799	28.23185834	128.5576875	
15	3.38	194.08101812	1124.58419793	97.06835135	183.21553795	932.14477842	93.06882367	315.08401191	1062.86797437	99.73038037	324.02310576	731.9016099	-2.17516339	337.87357704	735.37444489	209.25194344	208.81133931	772.60922675	107.06818025	260.28575834	405.64278207	-46.38730103	241.02074597	333.57430194	-5.43996617	74.12725545	174.19264247	-85.94149412	-9.89628179	127.35927019	-65.12955612	-50.28021143	172.53509511	-69.82832526	-68.26005051	28.35336943	15.72750859	406.89324481	440.26003625	222.7943899	408.6891672	368.9107742	172.54700906	365.66965297	148.38401403	238.61108985	310.01396403	56.4049941	225.48503513	250.94231313	45.39440671	227.01291272	390.02295362	28.14043792	128.69786177	
